<svg width="36" height="36" viewBox="0 0 36 36" fill="none" xmlns="http://www.w3.org/2000/svg">
<path d="M18 36C27.9411 36 36 27.9411 36 18C36 8.05887 27.9411 0 18 0C8.05887 0 0 8.05887 0 18C0 27.9411 8.05887 36 18 36Z" fill="white"/>
<path d="M18 35C27.3888 35 35 27.3888 35 18C35 8.61116 27.3888 1 18 1C8.61116 1 1 8.61116 1 18C1 27.3888 8.61116 35 18 35Z" stroke="#B8BCC3" stroke-width="2"/>
<path d="M23.5601 18.9301L18.4 24.73L13.25 18.9301" stroke="#B8BCC3" stroke-width="2" stroke-linecap="round"/>
<path d="M18.4 23.45V11.45" stroke="#B8BCC3" stroke-width="2" stroke-linecap="round"/>
</svg>
