<svg width="24" height="25" viewBox="0 0 24 25" fill="none" xmlns="http://www.w3.org/2000/svg">
<path d="M19 11V8C19 6.14348 18.2625 4.36301 16.9498 3.05025C15.637 1.7375 13.8565 1 12 1C10.1435 1 8.36299 1.7375 7.05023 3.05025C5.73748 4.36301 5 6.14348 5 8V11C5 14.3 2 15.1 2 17C2 18.7 5.9 20 12 20C18.1 20 22 18.7 22 17C22 15.1 19 14.3 19 11Z" stroke="#757575" stroke-width="2" stroke-miterlimit="10" stroke-linecap="square"/>
<path d="M12 22C11.0323 22.0167 10.0643 21.9833 9.09998 21.9C9.2139 22.2836 9.40342 22.6405 9.65735 22.9498C9.91128 23.259 10.2245 23.5143 10.5786 23.7007C10.9327 23.887 11.3205 24.0007 11.7192 24.0349C12.1178 24.0691 12.5193 24.0233 12.9 23.9C13.3693 23.7514 13.796 23.4921 14.144 23.1441C14.4921 22.796 14.7514 22.3693 14.9 21.9C13.9358 21.985 12.9678 22.0184 12 22V22Z" fill="#757575"/>
</svg>
