<svg width="24" height="24" viewBox="0 0 24 24" fill="none" xmlns="http://www.w3.org/2000/svg">
<path d="M10 19C8.21999 19 6.47995 18.4722 4.9999 17.4832C3.51986 16.4943 2.36627 15.0887 1.68508 13.4442C1.0039 11.7996 0.825671 9.99002 1.17294 8.24419C1.5202 6.49836 2.3774 4.89472 3.63607 3.63604C4.89475 2.37737 6.4984 1.5202 8.24423 1.17294C9.99006 0.82567 11.7996 1.0039 13.4442 1.68509C15.0887 2.36628 16.4943 3.51983 17.4832 4.99987C18.4722 6.47991 19 8.21997 19 10C19 12.387 18.0518 14.6761 16.364 16.364C14.6762 18.0518 12.387 19 10 19V19ZM10 3C8.61556 3 7.26219 3.41055 6.11105 4.17972C4.9599 4.94889 4.06268 6.04214 3.53286 7.32122C3.00305 8.6003 2.86445 10.0078 3.13455 11.3656C3.40464 12.7235 4.07129 13.9708 5.05026 14.9498C6.02922 15.9287 7.2765 16.5954 8.63436 16.8655C9.99223 17.1356 11.3997 16.997 12.6788 16.4672C13.9579 15.9373 15.0512 15.0401 15.8203 13.889C16.5895 12.7379 17 11.3845 17 10C17 8.14349 16.2625 6.36301 14.9498 5.05026C13.637 3.7375 11.8565 3 10 3V3Z" fill="#B8BCC3"/>
<path d="M22.7 21.3L18.4 17C17.9847 17.5153 17.5153 17.9847 17 18.4L21.3 22.7C21.4926 22.8444 21.7308 22.9145 21.9709 22.8975C22.211 22.8804 22.4369 22.7773 22.6071 22.6071C22.7773 22.4369 22.8804 22.211 22.8975 21.9709C22.9145 21.7308 22.8444 21.4926 22.7 21.3V21.3Z" fill="#B8BCC3"/>
</svg>
